<?xml version="1.0" encoding="UTF-8" standalone="no"?>
<!DOCTYPE svg PUBLIC "-//W3C//DTD SVG 1.1//EN" "http://www.w3.org/Graphics/SVG/1.1/DTD/svg11.dtd">
<svg width="100%" height="100%" viewBox="0 0 591 476" version="1.1" xmlns="http://www.w3.org/2000/svg" xmlns:xlink="http://www.w3.org/1999/xlink" xml:space="preserve" xmlns:serif="http://www.serif.com/" style="fill-rule:evenodd;clip-rule:evenodd;stroke-linejoin:round;stroke-miterlimit:2;">
    <g id="Layer-1" serif:id="Layer 1" transform="matrix(4.16667,0,0,4.16667,0,0)">
        <g transform="matrix(1,0,0,1,47.4837,73.9219)">
            <path d="M0,3.214L1.394,3.214C1.634,3.214 1.819,3.152 1.952,3.027C2.084,2.904 2.151,2.729 2.151,2.501C2.151,2.278 2.084,2.108 1.952,1.987C1.819,1.867 1.634,1.809 1.394,1.809L0,1.809L0,3.214ZM0,1.24L1.287,1.24C1.476,1.24 1.634,1.187 1.759,1.079C1.886,0.972 1.948,0.818 1.948,0.616C1.948,0.389 1.892,0.23 1.778,0.137C1.665,0.045 1.5,-0.002 1.287,-0.002L0,-0.002L0,1.24ZM-0.788,-0.644L1.4,-0.644C1.804,-0.644 2.127,-0.553 2.372,-0.367C2.614,-0.182 2.736,0.097 2.736,0.472C2.736,0.697 2.682,0.893 2.57,1.055C2.459,1.216 2.3,1.341 2.094,1.43L2.094,1.443C2.372,1.501 2.581,1.633 2.724,1.836C2.868,2.04 2.939,2.295 2.939,2.602C2.939,2.778 2.907,2.943 2.844,3.097C2.781,3.25 2.682,3.384 2.547,3.494C2.413,3.607 2.241,3.694 2.031,3.76C1.821,3.824 1.57,3.858 1.28,3.858L-0.788,3.858L-0.788,-0.644Z" style="fill:rgb(161,96,10);fill-rule:nonzero;"/>
        </g>
        <g transform="matrix(1,0,0,1,51.1975,77.7796)">
            <path d="M0,-4.502L0.788,-4.502L0.788,-0.682L3.077,-0.682L3.077,0L0,0L0,-4.502Z" style="fill:rgb(161,96,10);fill-rule:nonzero;"/>
        </g>
        <g transform="matrix(1,0,0,1,54.8811,77.7796)">
            <path d="M0,-4.502L3.241,-4.502L3.241,-3.821L0.788,-3.821L0.788,-2.643L3.059,-2.643L3.059,-1.999L0.788,-1.999L0.788,-0.682L3.285,-0.682L3.285,0L0,0L0,-4.502Z" style="fill:rgb(161,96,10);fill-rule:nonzero;"/>
        </g>
        <g transform="matrix(1,0,0,1,59.4334,74.7785)">
            <path d="M0,1.5C0,1.673 0.029,1.819 0.088,1.941C0.146,2.063 0.229,2.163 0.333,2.24C0.439,2.318 0.56,2.376 0.696,2.41C0.833,2.446 0.982,2.464 1.141,2.464C1.313,2.464 1.461,2.445 1.582,2.405C1.704,2.364 1.804,2.313 1.879,2.25C1.955,2.187 2.01,2.115 2.043,2.032C2.077,1.95 2.094,1.867 2.094,1.783C2.094,1.611 2.055,1.484 1.976,1.401C1.899,1.32 1.814,1.263 1.721,1.229C1.562,1.17 1.376,1.114 1.163,1.062C0.951,1.009 0.689,0.94 0.378,0.856C0.185,0.806 0.023,0.74 -0.104,0.658C-0.233,0.575 -0.335,0.484 -0.41,0.384C-0.486,0.283 -0.54,0.176 -0.571,0.062C-0.603,-0.052 -0.618,-0.167 -0.618,-0.284C-0.618,-0.512 -0.571,-0.708 -0.476,-0.874C-0.382,-1.04 -0.256,-1.178 -0.101,-1.287C0.055,-1.396 0.23,-1.478 0.429,-1.53C0.626,-1.582 0.826,-1.608 1.028,-1.608C1.263,-1.608 1.484,-1.579 1.693,-1.517C1.901,-1.457 2.083,-1.365 2.241,-1.243C2.399,-1.121 2.525,-0.971 2.617,-0.793C2.709,-0.613 2.755,-0.406 2.755,-0.171L1.967,-0.171C1.946,-0.461 1.847,-0.666 1.67,-0.786C1.495,-0.905 1.27,-0.966 0.997,-0.966C0.903,-0.966 0.81,-0.956 0.712,-0.938C0.616,-0.918 0.527,-0.887 0.448,-0.843C0.367,-0.798 0.301,-0.739 0.249,-0.663C0.196,-0.588 0.17,-0.492 0.17,-0.38C0.17,-0.22 0.219,-0.094 0.318,-0.005C0.417,0.086 0.546,0.154 0.707,0.2C0.723,0.205 0.789,0.223 0.905,0.254C1.02,0.285 1.15,0.32 1.292,0.358C1.436,0.396 1.575,0.434 1.712,0.469C1.849,0.505 1.946,0.53 2.005,0.548C2.152,0.595 2.281,0.657 2.389,0.736C2.499,0.816 2.59,0.908 2.664,1.011C2.738,1.114 2.792,1.225 2.828,1.343C2.864,1.46 2.882,1.577 2.882,1.695C2.882,1.947 2.831,2.163 2.727,2.341C2.625,2.521 2.489,2.667 2.32,2.78C2.152,2.893 1.96,2.976 1.747,3.028C1.532,3.081 1.313,3.108 1.09,3.108C0.834,3.108 0.592,3.077 0.366,3.013C0.139,2.95 -0.06,2.854 -0.227,2.723C-0.395,2.593 -0.53,2.426 -0.63,2.222C-0.731,2.018 -0.784,1.776 -0.788,1.5L0,1.5Z" style="fill:rgb(161,96,10);fill-rule:nonzero;"/>
        </g>
        <g transform="matrix(1,0,0,1,63.5813,74.7785)">
            <path d="M0,1.5C0,1.673 0.029,1.819 0.089,1.941C0.146,2.063 0.229,2.163 0.334,2.24C0.439,2.318 0.56,2.376 0.696,2.41C0.833,2.446 0.982,2.464 1.141,2.464C1.313,2.464 1.461,2.445 1.582,2.405C1.704,2.364 1.804,2.313 1.879,2.25C1.955,2.187 2.01,2.115 2.043,2.032C2.077,1.95 2.094,1.867 2.094,1.783C2.094,1.611 2.055,1.484 1.977,1.401C1.899,1.32 1.813,1.263 1.721,1.229C1.562,1.17 1.376,1.114 1.163,1.062C0.951,1.009 0.689,0.94 0.379,0.856C0.185,0.806 0.023,0.74 -0.104,0.658C-0.232,0.575 -0.335,0.484 -0.409,0.384C-0.485,0.283 -0.539,0.176 -0.571,0.062C-0.603,-0.052 -0.618,-0.167 -0.618,-0.284C-0.618,-0.512 -0.571,-0.708 -0.476,-0.874C-0.382,-1.04 -0.256,-1.178 -0.101,-1.287C0.055,-1.396 0.23,-1.478 0.429,-1.53C0.626,-1.582 0.826,-1.608 1.028,-1.608C1.263,-1.608 1.484,-1.579 1.693,-1.517C1.901,-1.457 2.084,-1.365 2.241,-1.243C2.399,-1.121 2.524,-0.971 2.616,-0.793C2.71,-0.613 2.756,-0.406 2.756,-0.171L1.968,-0.171C1.946,-0.461 1.848,-0.666 1.671,-0.786C1.495,-0.905 1.27,-0.966 0.997,-0.966C0.903,-0.966 0.81,-0.956 0.712,-0.938C0.616,-0.918 0.527,-0.887 0.448,-0.843C0.367,-0.798 0.302,-0.739 0.249,-0.663C0.196,-0.588 0.17,-0.492 0.17,-0.38C0.17,-0.22 0.22,-0.094 0.318,-0.005C0.417,0.086 0.547,0.154 0.707,0.2C0.724,0.205 0.789,0.223 0.905,0.254C1.021,0.285 1.15,0.32 1.292,0.358C1.436,0.396 1.575,0.434 1.712,0.469C1.849,0.505 1.946,0.53 2.006,0.548C2.152,0.595 2.281,0.657 2.39,0.736C2.499,0.816 2.591,0.908 2.664,1.011C2.737,1.114 2.792,1.225 2.828,1.343C2.864,1.46 2.882,1.577 2.882,1.695C2.882,1.947 2.83,2.163 2.728,2.341C2.625,2.521 2.489,2.667 2.32,2.78C2.152,2.893 1.961,2.976 1.747,3.028C1.532,3.081 1.313,3.108 1.091,3.108C0.834,3.108 0.593,3.077 0.366,3.013C0.139,2.95 -0.06,2.854 -0.228,2.723C-0.396,2.593 -0.529,2.426 -0.63,2.222C-0.73,2.018 -0.783,1.776 -0.788,1.5L0,1.5Z" style="fill:rgb(161,96,10);fill-rule:nonzero;"/>
        </g>
        <g transform="matrix(1,0,0,1,67.2141,77.7796)">
            <path d="M0,-4.502L3.242,-4.502L3.242,-3.821L0.789,-3.821L0.789,-2.643L3.06,-2.643L3.06,-1.999L0.789,-1.999L0.789,-0.682L3.285,-0.682L3.285,0L0,0L0,-4.502Z" style="fill:rgb(161,96,10);fill-rule:nonzero;"/>
        </g>
        <g transform="matrix(1,0,0,1,72.0374,73.9219)">
            <path d="M0,3.214L0.776,3.214C1.083,3.214 1.334,3.173 1.53,3.091C1.725,3.009 1.878,2.896 1.99,2.751C2.101,2.606 2.177,2.436 2.218,2.239C2.257,2.044 2.276,1.833 2.276,1.606C2.276,1.379 2.257,1.168 2.218,0.972C2.177,0.777 2.101,0.607 1.99,0.461C1.878,0.317 1.725,0.202 1.53,0.121C1.334,0.039 1.083,-0.002 0.776,-0.002L0,-0.002L0,3.214ZM-0.788,-0.644L1.079,-0.644C1.424,-0.644 1.723,-0.587 1.975,-0.469C2.227,-0.35 2.433,-0.19 2.593,0.014C2.751,0.217 2.87,0.457 2.948,0.73C3.025,1.003 3.064,1.295 3.064,1.606C3.064,1.917 3.025,2.209 2.948,2.483C2.87,2.755 2.751,2.994 2.593,3.197C2.433,3.402 2.227,3.563 1.975,3.68C1.723,3.798 1.424,3.858 1.079,3.858L-0.788,3.858L-0.788,-0.644Z" style="fill:rgb(161,96,10);fill-rule:nonzero;"/>
        </g>
        <g transform="matrix(1,0,0,1,78.1995,74.7785)">
            <path d="M0,1.5C0,1.673 0.028,1.819 0.088,1.941C0.146,2.063 0.228,2.163 0.333,2.24C0.438,2.318 0.56,2.376 0.696,2.41C0.833,2.446 0.981,2.464 1.141,2.464C1.312,2.464 1.461,2.445 1.582,2.405C1.703,2.364 1.804,2.313 1.878,2.25C1.954,2.187 2.009,2.115 2.043,2.032C2.076,1.95 2.093,1.867 2.093,1.783C2.093,1.611 2.054,1.484 1.976,1.401C1.898,1.32 1.813,1.263 1.721,1.229C1.562,1.17 1.376,1.114 1.163,1.062C0.95,1.009 0.689,0.94 0.378,0.856C0.185,0.806 0.023,0.74 -0.104,0.658C-0.233,0.575 -0.335,0.484 -0.41,0.384C-0.486,0.283 -0.54,0.176 -0.571,0.062C-0.603,-0.052 -0.618,-0.167 -0.618,-0.284C-0.618,-0.512 -0.571,-0.708 -0.477,-0.874C-0.382,-1.04 -0.257,-1.178 -0.102,-1.287C0.055,-1.396 0.23,-1.478 0.429,-1.53C0.625,-1.582 0.826,-1.608 1.027,-1.608C1.263,-1.608 1.484,-1.579 1.692,-1.517C1.9,-1.457 2.083,-1.365 2.241,-1.243C2.398,-1.121 2.524,-0.971 2.616,-0.793C2.709,-0.613 2.755,-0.406 2.755,-0.171L1.967,-0.171C1.945,-0.461 1.847,-0.666 1.67,-0.786C1.494,-0.905 1.27,-0.966 0.996,-0.966C0.903,-0.966 0.809,-0.956 0.712,-0.938C0.615,-0.918 0.527,-0.887 0.447,-0.843C0.367,-0.798 0.301,-0.739 0.248,-0.663C0.195,-0.588 0.17,-0.492 0.17,-0.38C0.17,-0.22 0.219,-0.094 0.317,-0.005C0.416,0.086 0.546,0.154 0.706,0.2C0.723,0.205 0.789,0.223 0.904,0.254C1.02,0.285 1.149,0.32 1.292,0.358C1.435,0.396 1.575,0.434 1.712,0.469C1.848,0.505 1.945,0.53 2.005,0.548C2.151,0.595 2.28,0.657 2.389,0.736C2.498,0.816 2.59,0.908 2.663,1.011C2.737,1.114 2.792,1.225 2.828,1.343C2.863,1.46 2.882,1.577 2.882,1.695C2.882,1.947 2.83,2.163 2.727,2.341C2.624,2.521 2.488,2.667 2.319,2.78C2.151,2.893 1.96,2.976 1.746,3.028C1.531,3.081 1.312,3.108 1.09,3.108C0.834,3.108 0.592,3.077 0.365,3.013C0.139,2.95 -0.06,2.854 -0.228,2.723C-0.396,2.593 -0.53,2.426 -0.631,2.222C-0.731,2.018 -0.784,1.776 -0.789,1.5L0,1.5Z" style="fill:rgb(161,96,10);fill-rule:nonzero;"/>
        </g>
        <g transform="matrix(1,0,0,1,81.8313,77.7796)">
            <path d="M0,-4.502L3.241,-4.502L3.241,-3.821L0.788,-3.821L0.788,-2.643L3.059,-2.643L3.059,-1.999L0.788,-1.999L0.788,-0.682L3.284,-0.682L3.284,0L0,0L0,-4.502Z" style="fill:rgb(161,96,10);fill-rule:nonzero;"/>
        </g>
        <g transform="matrix(1,0,0,1,86.7932,75.0685)">
            <path d="M0,0.92L1.375,0.92L0.699,-1.017L0.681,-1.017L0,0.92ZM0.277,-1.791L1.116,-1.791L2.851,2.711L2.005,2.711L1.583,1.52L-0.215,1.52L-0.637,2.711L-1.45,2.711L0.277,-1.791Z" style="fill:rgb(161,96,10);fill-rule:nonzero;"/>
        </g>
        <g transform="matrix(1,0,0,1,90.6526,74.7785)">
            <path d="M0,1.5C0,1.673 0.029,1.819 0.088,1.941C0.146,2.063 0.229,2.163 0.333,2.24C0.438,2.318 0.56,2.376 0.696,2.41C0.833,2.446 0.981,2.464 1.141,2.464C1.313,2.464 1.461,2.445 1.582,2.405C1.704,2.364 1.804,2.313 1.879,2.25C1.955,2.187 2.01,2.115 2.043,2.032C2.076,1.95 2.094,1.867 2.094,1.783C2.094,1.611 2.055,1.484 1.976,1.401C1.898,1.32 1.813,1.263 1.721,1.229C1.562,1.17 1.376,1.114 1.163,1.062C0.95,1.009 0.689,0.94 0.378,0.856C0.185,0.806 0.023,0.74 -0.104,0.658C-0.233,0.575 -0.335,0.484 -0.41,0.384C-0.486,0.283 -0.54,0.176 -0.571,0.062C-0.603,-0.052 -0.618,-0.167 -0.618,-0.284C-0.618,-0.512 -0.571,-0.708 -0.476,-0.874C-0.382,-1.04 -0.257,-1.178 -0.101,-1.287C0.055,-1.396 0.23,-1.478 0.429,-1.53C0.626,-1.582 0.826,-1.608 1.027,-1.608C1.263,-1.608 1.484,-1.579 1.692,-1.517C1.9,-1.457 2.083,-1.365 2.241,-1.243C2.399,-1.121 2.524,-0.971 2.616,-0.793C2.709,-0.613 2.755,-0.406 2.755,-0.171L1.967,-0.171C1.945,-0.461 1.847,-0.666 1.67,-0.786C1.494,-0.905 1.27,-0.966 0.996,-0.966C0.903,-0.966 0.81,-0.956 0.712,-0.938C0.615,-0.918 0.527,-0.887 0.447,-0.843C0.367,-0.798 0.301,-0.739 0.248,-0.663C0.195,-0.588 0.17,-0.492 0.17,-0.38C0.17,-0.22 0.219,-0.094 0.317,-0.005C0.416,0.086 0.546,0.154 0.706,0.2C0.723,0.205 0.789,0.223 0.904,0.254C1.02,0.285 1.149,0.32 1.292,0.358C1.436,0.396 1.575,0.434 1.712,0.469C1.849,0.505 1.945,0.53 2.005,0.548C2.151,0.595 2.28,0.657 2.389,0.736C2.499,0.816 2.591,0.908 2.663,1.011C2.737,1.114 2.792,1.225 2.828,1.343C2.863,1.46 2.882,1.577 2.882,1.695C2.882,1.947 2.83,2.163 2.728,2.341C2.624,2.521 2.488,2.667 2.319,2.78C2.151,2.893 1.96,2.976 1.746,3.028C1.531,3.081 1.313,3.108 1.09,3.108C0.834,3.108 0.592,3.077 0.366,3.013C0.139,2.95 -0.06,2.854 -0.228,2.723C-0.396,2.593 -0.53,2.426 -0.631,2.222C-0.731,2.018 -0.784,1.776 -0.788,1.5L0,1.5Z" style="fill:rgb(161,96,10);fill-rule:nonzero;"/>
        </g>
        <g transform="matrix(1,0,0,1,96.2014,77.2437)">
            <path d="M0,-3.431C-0.24,-3.431 -0.447,-3.382 -0.622,-3.285C-0.795,-3.19 -0.937,-3.06 -1.047,-2.899C-1.155,-2.736 -1.237,-2.552 -1.29,-2.346C-1.343,-2.141 -1.368,-1.93 -1.368,-1.716C-1.368,-1.501 -1.343,-1.29 -1.29,-1.084C-1.237,-0.878 -1.155,-0.695 -1.047,-0.534C-0.937,-0.371 -0.795,-0.243 -0.622,-0.146C-0.447,-0.049 -0.24,-0.001 0,-0.001C0.239,-0.001 0.446,-0.049 0.621,-0.146C0.796,-0.243 0.937,-0.371 1.047,-0.534C1.156,-0.695 1.237,-0.878 1.289,-1.084C1.342,-1.29 1.368,-1.501 1.368,-1.716C1.368,-1.93 1.342,-2.141 1.289,-2.346C1.237,-2.552 1.156,-2.736 1.047,-2.899C0.937,-3.06 0.796,-3.19 0.621,-3.285C0.446,-3.382 0.239,-3.431 0,-3.431M0,-4.074C0.337,-4.074 0.638,-4.011 0.904,-3.885C1.172,-3.758 1.398,-3.588 1.583,-3.374C1.768,-3.16 1.91,-2.91 2.008,-2.624C2.106,-2.337 2.156,-2.035 2.156,-1.716C2.156,-1.392 2.106,-1.087 2.008,-0.801C1.91,-0.516 1.768,-0.265 1.583,-0.051C1.398,0.164 1.172,0.333 0.904,0.457C0.638,0.58 0.337,0.643 0,0.643C-0.336,0.643 -0.639,0.58 -0.905,0.457C-1.173,0.333 -1.397,0.164 -1.582,-0.051C-1.769,-0.265 -1.909,-0.516 -2.009,-0.801C-2.107,-1.087 -2.156,-1.392 -2.156,-1.716C-2.156,-2.035 -2.107,-2.337 -2.009,-2.624C-1.909,-2.91 -1.769,-3.16 -1.582,-3.374C-1.397,-3.588 -1.173,-3.758 -0.905,-3.885C-0.639,-4.011 -0.336,-4.074 0,-4.074" style="fill:rgb(161,96,10);fill-rule:nonzero;"/>
        </g>
        <g transform="matrix(1,0,0,1,99.1077,77.7796)">
            <path d="M0,-4.502L0.832,-4.502L2.888,-1.187L2.9,-1.187L2.9,-4.502L3.651,-4.502L3.651,0L2.818,0L0.77,-3.312L0.75,-3.312L0.75,0L0,0L0,-4.502Z" style="fill:rgb(161,96,10);fill-rule:nonzero;"/>
        </g>
        <g transform="matrix(1,0,0,1,104.271,74.7785)">
            <path d="M0,1.5C0,1.673 0.029,1.819 0.089,1.941C0.147,2.063 0.229,2.163 0.334,2.24C0.439,2.318 0.561,2.376 0.697,2.41C0.833,2.446 0.982,2.464 1.142,2.464C1.313,2.464 1.462,2.445 1.582,2.405C1.704,2.364 1.804,2.313 1.879,2.25C1.955,2.187 2.01,2.115 2.044,2.032C2.077,1.95 2.094,1.867 2.094,1.783C2.094,1.611 2.055,1.484 1.977,1.401C1.899,1.32 1.814,1.263 1.722,1.229C1.562,1.17 1.377,1.114 1.164,1.062C0.951,1.009 0.69,0.94 0.379,0.856C0.186,0.806 0.024,0.74 -0.104,0.658C-0.232,0.575 -0.334,0.484 -0.409,0.384C-0.485,0.283 -0.539,0.176 -0.57,0.062C-0.602,-0.052 -0.617,-0.167 -0.617,-0.284C-0.617,-0.512 -0.57,-0.708 -0.476,-0.874C-0.381,-1.04 -0.256,-1.178 -0.101,-1.287C0.056,-1.396 0.231,-1.478 0.43,-1.53C0.626,-1.582 0.827,-1.608 1.028,-1.608C1.264,-1.608 1.485,-1.579 1.693,-1.517C1.901,-1.457 2.084,-1.365 2.242,-1.243C2.399,-1.121 2.525,-0.971 2.617,-0.793C2.71,-0.613 2.756,-0.406 2.756,-0.171L1.968,-0.171C1.946,-0.461 1.848,-0.666 1.671,-0.786C1.495,-0.905 1.271,-0.966 0.997,-0.966C0.904,-0.966 0.81,-0.956 0.713,-0.938C0.616,-0.918 0.527,-0.887 0.448,-0.843C0.368,-0.798 0.302,-0.739 0.249,-0.663C0.196,-0.588 0.171,-0.492 0.171,-0.38C0.171,-0.22 0.22,-0.094 0.318,-0.005C0.417,0.086 0.547,0.154 0.707,0.2C0.724,0.205 0.79,0.223 0.905,0.254C1.021,0.285 1.15,0.32 1.293,0.358C1.436,0.396 1.576,0.434 1.712,0.469C1.849,0.505 1.946,0.53 2.006,0.548C2.152,0.595 2.281,0.657 2.39,0.736C2.499,0.816 2.591,0.908 2.664,1.011C2.738,1.114 2.793,1.225 2.828,1.343C2.864,1.46 2.883,1.577 2.883,1.695C2.883,1.947 2.831,2.163 2.728,2.341C2.625,2.521 2.489,2.667 2.32,2.78C2.152,2.893 1.961,2.976 1.747,3.028C1.532,3.081 1.313,3.108 1.091,3.108C0.835,3.108 0.593,3.077 0.366,3.013C0.14,2.95 -0.059,2.854 -0.227,2.723C-0.395,2.593 -0.529,2.426 -0.63,2.222C-0.73,2.018 -0.783,1.776 -0.788,1.5L0,1.5Z" style="fill:rgb(161,96,10);fill-rule:nonzero;"/>
        </g>
        <g transform="matrix(2.25978,14.6811,14.6811,-2.25978,73.2888,96.5528)">
            <path d="M-0.146,-2.157C0.334,-1.715 0.67,-1.124 0.775,-0.444C0.928,0.549 0.554,1.508 -0.146,2.177C-0.383,1.915 -0.721,1.375 -0.835,0.635C-0.951,-0.117 -0.835,-1.075 -0.146,-2.157Z" style="fill:url(#_Linear1);fill-rule:nonzero;"/>
        </g>
        <g transform="matrix(15.3682,36.4202,36.4202,-15.3682,69.8363,80.9313)">
            <path d="M0.5,-0.546C0.51,-0.533 0.519,-0.52 0.528,-0.507C0.356,0.044 0.435,0.415 0.5,0.54C0.486,0.514 0.473,0.487 0.461,0.46C0.33,0.15 0.398,-0.234 0.5,-0.546Z" style="fill:url(#_Linear2);fill-rule:nonzero;"/>
        </g>
        <g transform="matrix(15.27,36.1867,36.1867,-15.27,56.3847,75.5407)">
            <path d="M0.491,-0.539C0.502,-0.532 0.514,-0.524 0.524,-0.516C0.352,0.048 0.442,0.428 0.491,0.546C0.481,0.526 0.471,0.505 0.462,0.484C0.327,0.164 0.39,-0.222 0.491,-0.539Z" style="fill:url(#_Linear3);fill-rule:nonzero;"/>
        </g>
        <g transform="matrix(15.5771,36.5099,36.5099,-15.5771,59.5552,76.9559)">
            <path d="M0.494,-0.542C0.504,-0.534 0.515,-0.525 0.525,-0.517C0.35,0.044 0.433,0.418 0.494,0.545C0.483,0.525 0.474,0.505 0.465,0.485C0.329,0.166 0.393,-0.226 0.494,-0.542Z" style="fill:url(#_Linear4);fill-rule:nonzero;"/>
        </g>
        <g transform="matrix(15.7225,36.5731,36.5731,-15.7225,62.8594,78.2575)">
            <path d="M0.498,-0.547C0.507,-0.538 0.517,-0.529 0.526,-0.52C0.349,0.048 0.437,0.427 0.498,0.541C0.487,0.522 0.478,0.502 0.469,0.482C0.332,0.163 0.398,-0.231 0.498,-0.547Z" style="fill:url(#_Linear5);fill-rule:nonzero;"/>
        </g>
        <g transform="matrix(15.4665,36.5572,36.5572,-15.4665,66.0879,79.8825)">
            <path d="M0.496,-0.542C0.506,-0.531 0.515,-0.521 0.524,-0.51C0.347,0.04 0.428,0.396 0.496,0.544C0.482,0.519 0.47,0.494 0.459,0.468C0.326,0.153 0.394,-0.23 0.496,-0.542Z" style="fill:url(#_Linear6);fill-rule:nonzero;"/>
        </g>
        <g transform="matrix(14.8323,36.1671,36.1671,-14.8323,73.5556,82.2484)">
            <path d="M0.5,-0.54C0.511,-0.523 0.521,-0.505 0.531,-0.486C0.36,0.083 0.458,0.453 0.5,0.541C0.487,0.523 0.474,0.499 0.463,0.472C0.389,0.291 0.358,-0.089 0.5,-0.54Z" style="fill:url(#_Linear7);fill-rule:nonzero;"/>
        </g>
        <g transform="matrix(34.8591,0,0,-34.8591,66.5401,101.434)">
            <path d="M0,-0.214C0.019,-0.215 0.038,-0.215 0.057,-0.215C0.065,-0.215 0.073,-0.215 0.081,-0.215C0.487,0.108 0.833,0.186 0.992,0.206C0.994,0.209 0.997,0.212 1,0.215C0.791,0.213 0.434,0.134 0,-0.214Z" style="fill:url(#_Linear8);fill-rule:nonzero;"/>
        </g>
        <g transform="matrix(26.8455,0,0,-26.8455,73.0297,102.128)">
            <path d="M0.231,-0.075C0.152,-0.128 0.075,-0.185 0,-0.244C0.021,-0.242 0.042,-0.24 0.063,-0.237C0.066,-0.236 0.069,-0.236 0.072,-0.235C0.093,-0.232 0.114,-0.229 0.135,-0.225L0.135,-0.225C0.455,0.012 0.732,0.14 0.951,0.196L0.951,0.196C0.967,0.212 0.984,0.228 1,0.244C1,0.244 1,0.244 1,0.244C0.742,0.216 0.476,0.089 0.231,-0.075Z" style="fill:url(#_Linear9);fill-rule:nonzero;"/>
        </g>
        <g transform="matrix(14.2747,0,0,-14.2747,82.1854,102.706)">
            <path d="M0,-0.28C0.367,-0.157 0.705,0.034 1,0.28C0.674,0.163 0.327,-0.046 0,-0.28Z" style="fill:url(#_Linear10);fill-rule:nonzero;"/>
        </g>
        <g transform="matrix(1,0,0,1,101.328,52.9515)">
            <path d="M0,-4.089L0,-0.112C0,0.126 0.254,0.255 0.385,0.255L37.052,0.259C37.288,0.259 37.479,-0.16 37.479,-0.435L37.479,-3.82C37.479,-4.018 37.41,-4.348 36.941,-4.348L0.642,-4.348C0,-4.348 0,-4.211 0,-4.089" style="fill:rgb(161,96,10);fill-rule:nonzero;"/>
        </g>
        <g transform="matrix(1,0,0,1,140.693,81.4823)">
            <path d="M0,4.804C-0.282,3.029 -1.449,1.867 -2.382,1.203C-3.098,0.681 -3.97,0.234 -4.887,-0.09C-4.472,0.351 -4.089,0.834 -3.752,1.347C-2.986,2.52 -2.623,3.724 -2.673,4.927L-2.675,4.964L-2.685,5C-3.027,6.256 -4.012,6.917 -5.621,6.964L-8.75,6.964C-10.275,6.964 -11.341,6.076 -11.341,4.805L-11.341,-15.248L0.449,-15.248C0.592,-15.248 1.04,-15.439 1.04,-15.883L1.04,-19.377C1.04,-19.633 0.815,-19.905 0.398,-19.905L-41.595,-19.905C-42.083,-19.905 -42.083,-19.781 -42.083,-19.592L-42.083,-15.722C-42.083,-15.453 -41.895,-15.248 -41.8,-15.248L-28.156,-15.248C-29.527,-4.466 -34.439,5.578 -40.568,9.786C-40.568,9.786 -41.13,12.589 -41.853,13.284C-50.093,21.206 -60.869,26.017 -72.653,26.017C-85.187,26.017 -96.583,20.578 -104.996,11.74C-105.052,11.682 -105.162,11.533 -105.162,11.189L-105.162,-23.284C-105.162,-23.57 -105.318,-23.816 -105.573,-23.937C-107.45,-24.057 -108.718,-24.57 -110.298,-25.278L-110.339,-25.302C-110.366,-25.27 -110.396,-25.21 -110.396,-25.148L-110.396,10.919C-110.396,11.407 -110.278,11.711 -110.173,11.86C-110.106,11.952 -110.071,11.995 -110.071,11.995C-100.793,23.115 -87.457,30.106 -72.653,30.106C-59.705,30.106 -47.882,24.754 -38.913,15.972C-38.913,15.972 -36.295,14.48 -35.821,14.094C-28.723,8.304 -23.391,-3.039 -22.036,-15.248L-18.009,-15.248L-18.009,5.397C-18.009,7.043 -17.391,8.542 -16.267,9.617C-15.139,10.686 -13.634,11.299 -12.136,11.299L-5.575,11.299C-3.942,11.244 -2.355,10.7 -1.434,9.88C0.165,8.436 0.229,6.321 0,4.804" style="fill:rgb(161,96,10);fill-rule:nonzero;"/>
        </g>
        <g transform="matrix(1,0,0,1,37.2483,52.5974)">
            <path d="M0,29.73L-1.037,29.73L-0.09,33.137C0.045,33.618 0.16,33.768 0.616,33.768L2.975,33.768C3.837,33.768 4.728,33.394 5.359,32.767C6.012,32.123 6.387,31.192 6.387,30.213L6.387,0.448C6.387,-0.965 5.966,-2.165 5.203,-2.93C4.469,-3.666 3.356,-4.038 1.898,-4.038L-2.975,-4.038C-3.988,-4.038 -4.823,-3.818 -5.451,-3.388C-6.201,-2.853 -6.661,-2.101 -6.747,-1.28C-6.842,-0.054 -6.355,1.084 -5.452,1.761C-4.875,2.171 -4.174,2.449 -3.358,2.588C-3.587,2.277 -3.73,1.955 -3.764,1.662C-3.824,1.338 -3.754,1.013 -3.567,0.745C-3.333,0.412 -2.94,0.187 -2.402,0.11L-0.435,0.166C0.92,0.277 1.205,1.156 1.205,1.873L1.205,28.241C1.205,29.173 0.754,29.73 0,29.73" style="fill:rgb(161,96,10);fill-rule:nonzero;"/>
        </g>
        <g transform="matrix(1,0,0,1,11.1292,80.0791)">
            <path d="M0,-20.739L4.062,-20.739C4.592,-20.739 4.859,-21.295 4.859,-21.295C5.376,-22.124 5.853,-23.406 5.99,-24.343L6.033,-24.631L16.424,-24.631C16.613,-24.631 16.729,-24.654 16.759,-24.951L16.759,-28.678C16.759,-28.802 16.668,-28.998 16.424,-28.998L7.357,-28.998L8.563,-32.988C8.605,-33.144 8.577,-33.346 8.5,-33.448C8.468,-33.49 8.446,-33.493 8.418,-33.493L3.937,-33.549C3.689,-33.501 3.506,-33.431 3.407,-33.079C2.445,-29.749 1.233,-25.812 -0.453,-21.856L-0.541,-21.653L-5.651,-21.655C-6.185,-21.602 -6.458,-21.4 -6.593,-20.97C-7.838,-16.287 -9.18,-12.645 -11.088,-8.776C-11.124,-8.714 -11.127,-8.68 -11.129,-8.68C-11.109,-8.65 -10.977,-8.559 -10.659,-8.514L-8.48,-8.514L-8.428,12.107C-8.428,12.547 -8.258,12.81 -8.094,12.81L-2.829,12.81C-2.686,12.792 -2.573,12.736 -2.504,12.647C-2.436,12.56 -2.407,12.444 -2.426,12.271L-2.426,-12.394L-1.974,-13.868C-1.287,-16.098 -0.346,-19.154 -0.058,-20.474L0,-20.739Z" style="fill:rgb(161,96,10);fill-rule:nonzero;"/>
        </g>
        <g transform="matrix(1,0,0,1,0.6238,46.8059)">
            <path d="M0,9.958L6.515,9.958C6.738,9.958 6.992,9.765 7.147,9.475C8.814,6.413 10.246,3.562 11.671,0.467C11.712,0.401 11.711,0.242 11.644,0.117C11.602,0.039 11.55,0 11.49,0L5.694,0C5.216,0 5.023,0.383 4.973,0.51C3.588,3.697 1.95,6.64 -0.013,9.467C-0.111,9.657 -0.104,9.83 -0.051,9.917C-0.027,9.958 -0.008,9.958 0,9.958" style="fill:rgb(161,96,10);fill-rule:nonzero;"/>
        </g>
        <g transform="matrix(1,0,0,1,28.7088,84.6518)">
            <path d="M0,-21.301C0,-21.447 -0.117,-21.511 -0.231,-21.511L-4.36,-21.511L-4.36,-24.261C-4.36,-25.47 -4.787,-26.453 -5.616,-27.173C-6.21,-27.641 -6.944,-27.899 -7.684,-27.899C-8.091,-27.899 -8.496,-27.822 -8.888,-27.671C-9.713,-27.363 -10.421,-26.781 -10.966,-25.971C-10.95,-25.971 -10.934,-25.972 -10.917,-25.972C-10.688,-25.972 -10.469,-25.919 -10.302,-25.83C-9.956,-25.671 -9.542,-25.288 -9.542,-24.37L-9.542,-21.511L-16.338,-21.511C-16.744,-21.511 -16.774,-21.363 -16.774,-21.137L-16.774,-17.628C-16.774,-17.589 -16.765,-17.254 -16.441,-17.254L-9.542,-17.254L-9.542,1.399L-9.813,1.451C-10.389,1.563 -11.234,1.678 -11.824,1.678L-12.157,1.678L-12.157,-11.762C-12.157,-11.908 -12.2,-12.247 -12.593,-12.247L-15.928,-12.247C-16.344,-12.247 -16.364,-12.132 -16.364,-11.927L-16.364,2.22L-16.567,2.308C-16.782,2.4 -17.043,2.428 -17.296,2.454C-17.407,2.466 -17.517,2.476 -17.622,2.495C-17.708,2.509 -17.852,2.531 -17.852,2.874L-17.852,6.218C-17.852,6.333 -17.817,6.442 -17.757,6.518C-17.719,6.567 -17.672,6.598 -17.637,6.598L-17.606,6.595C-12.294,6 -5.898,4.811 -1.228,3.943L-1.078,3.916C-0.599,3.802 -0.514,3.687 -0.514,3.423L-0.514,0.243C-0.514,0.083 -0.625,-0.083 -0.822,-0.086C-1.938,0.178 -3.13,0.366 -4.009,0.416L-4.36,0.436L-4.36,-6.893L-0.898,-6.893C-0.747,-6.893 -0.565,-7.161 -0.565,-7.268L-0.565,-10.941C-0.565,-11.304 -0.957,-11.315 -1.001,-11.315L-4.36,-11.315L-4.36,-17.254L-0.342,-17.251C-0.315,-17.246 -0.289,-17.245 -0.262,-17.245C-0.133,-17.245 -0.049,-17.288 -0.018,-17.325C-0.003,-17.342 0.01,-17.366 0,-17.464L0,-21.301Z" style="fill:rgb(161,96,10);fill-rule:nonzero;"/>
        </g>
        <g transform="matrix(1,0,0,1,93.5735,55.9892)">
            <path d="M0,2.636L0,-0.589C0,-0.845 -0.115,-0.956 -0.385,-0.956L-15.876,-0.956L-15.972,-1.604C-11.096,-3.063 -7.842,-4.217 -6.014,-5.135C-4.368,-5.894 -4.223,-7.385 -4.599,-8.437C-4.924,-9.411 -5.704,-10.04 -6.588,-10.04L-6.693,-10.037L-37.47,-10.037C-38.587,-10.037 -39.413,-9.68 -39.861,-9.002C-40.365,-8.255 -40.394,-7.162 -39.935,-6.146C-39.636,-5.453 -39.018,-4.709 -38.1,-4.424C-38.258,-4.736 -38.359,-5.072 -38.31,-5.38C-38.27,-5.59 -38.092,-6.079 -37.316,-6.079L-17.773,-6.079L-17.663,-5.434C-19.087,-4.937 -22.662,-3.965 -24.664,-3.493C-24.875,-3.437 -24.98,-3.292 -24.98,-3.06L-24.98,-0.956L-43.164,-0.956C-43.263,-0.956 -43.498,-0.855 -43.498,-0.696L-43.498,2.582C-43.498,2.826 -43.424,3.111 -43.215,3.111L-24.98,3.111L-24.98,6.666C-24.98,7.59 -25.587,8.287 -26.391,8.287L-30.738,8.286C-30.78,8.299 -30.85,8.393 -30.864,8.397L-28.88,12.29C-28.714,12.489 -28.361,12.676 -28.237,12.676L-23.877,12.676C-22.229,12.676 -20.865,12.275 -19.943,11.524C-19.044,10.73 -18.568,9.589 -18.568,8.225L-18.568,3.111L-0.385,3.111C-0.15,3.111 0,2.925 0,2.636" style="fill:rgb(161,96,10);fill-rule:nonzero;"/>
        </g>
        <g transform="matrix(1,0,0,1,85.8538,44.2766)">
            <path d="M0,-6.439L-6.515,-6.439C-6.646,-6.439 -6.746,-6.361 -6.786,-6.283C-6.825,-6.208 -6.815,-6.131 -6.768,-6.063C-4.835,-3.647 -2.602,-1.503 -0.783,-0.324C-0.56,-0.168 -0.181,0 0.124,0C0.153,0 0.185,-0.002 0.257,-0.008L7.335,-0.008C7.462,-0.008 7.567,-0.122 7.604,-0.233C7.618,-0.275 7.633,-0.353 7.594,-0.382C4.734,-2.579 1.961,-5.112 0.914,-6.087C0.815,-6.17 0.458,-6.439 0,-6.439" style="fill:rgb(161,96,10);fill-rule:nonzero;"/>
        </g>
        <g transform="matrix(1,0,0,1,51.1795,35.3456)">
            <path d="M0,-3.634C-0.101,-3.634 -0.269,-3.449 -0.283,-3.375L-0.283,-0.097C-0.283,0.163 -0.116,0.324 0.153,0.324L17.259,0.324L17.259,8.555C17.259,8.895 17.405,8.923 17.542,8.923L23.338,8.923C23.504,8.923 23.672,8.809 23.672,8.555L23.672,0.324L40.932,0.324C41.11,0.324 41.266,0.029 41.266,-0.151L41.266,-3.321C41.266,-3.449 41.116,-3.634 40.88,-3.634L23.672,-3.634L23.672,-7.504L23.987,-7.521C28.089,-7.744 35.304,-8.291 38.515,-8.592C38.556,-8.598 38.907,-8.673 38.907,-9.125L38.907,-12.202C38.862,-12.337 38.643,-12.555 38.505,-12.557C31.586,-11.82 17.073,-10.729 7.892,-10.729C5.521,-10.729 3.631,-10.801 2.247,-10.948C2.128,-10.948 1.923,-10.746 1.923,-10.63L1.923,-7.674C1.923,-7.071 2.088,-7.05 2.166,-7.037C4.579,-6.952 7.276,-6.909 10.184,-6.909C12.401,-6.909 14.667,-6.934 16.918,-6.984L17.259,-6.992L17.259,-3.634L0,-3.634Z" style="fill:rgb(161,96,10);fill-rule:nonzero;"/>
        </g>
        <g transform="matrix(1,0,0,1,49.8635,37.9688)">
            <path d="M0,6.153C0.027,6.221 0.105,6.299 0.238,6.299L7.515,6.302C7.571,6.31 7.633,6.313 7.697,6.313C8.066,6.313 8.421,6.207 8.579,6.08C9.784,5.343 13.455,2.348 15.099,0.366C15.211,0.211 15.218,0.03 15.167,-0.067C15.14,-0.12 15.105,-0.131 15.063,-0.131L8.037,-0.131L7.99,-0.145C7.958,-0.155 7.92,-0.16 7.875,-0.16C7.635,-0.16 7.349,-0.016 7.239,0.099C5.12,2.113 2.842,3.865 0.106,5.852C0,5.951 -0.038,6.058 0,6.153" style="fill:rgb(161,96,10);fill-rule:nonzero;"/>
        </g>
        <g transform="matrix(1,0,0,1,22.9143,-0.0681)">
            <path d="M0,43.017C1.58,43.549 3.263,42.622 3.764,40.954C9.569,21.617 25.902,7.99 44.406,7.046C65.701,5.973 84.497,19.876 90.116,40.887C90.491,42.283 91.692,43.195 93,43.195C93.271,43.195 93.545,43.157 93.818,43.075C95.411,42.598 96.337,40.844 95.886,39.158C89.501,15.292 68.221,-0.532 44.117,0.71C23.123,1.78 4.61,17.181 -1.95,39.034C-2.451,40.703 -1.579,42.486 0,43.017" style="fill:rgb(161,96,10);fill-rule:nonzero;"/>
        </g>
        <g transform="matrix(1,0,0,1,69.6223,36.2574)">
            <path d="M0,-29.91C20.601,-29.91 38.48,-16.081 43.963,4.413C44.32,5.749 45.688,6.574 46.945,6.2C48.241,5.812 48.994,4.368 48.624,2.981C42.307,-20.634 21.243,-36.287 -2.562,-35.043C-23.314,-33.985 -41.619,-18.748 -48.109,2.872C-48.521,4.246 -47.811,5.715 -46.526,6.148L-46.525,6.149C-45.936,6.346 -45.305,6.298 -44.75,6.011C-44.145,5.698 -43.699,5.149 -43.493,4.463C-37.619,-15.106 -21.078,-28.896 -2.331,-29.851C-1.552,-29.89 -0.772,-29.91 0,-29.91M46.292,7.443C44.699,7.443 43.285,6.319 42.854,4.71C37.307,-16.026 18.749,-29.776 -2.272,-28.706C-20.536,-27.775 -36.66,-14.313 -42.395,4.793C-42.69,5.779 -43.34,6.573 -44.223,7.029C-45.058,7.46 -46.006,7.531 -46.891,7.235C-48.756,6.608 -49.795,4.503 -49.207,2.543C-42.578,-19.54 -23.856,-35.106 -2.62,-36.188C21.725,-37.441 43.272,-21.459 49.732,2.684C50.261,4.664 49.158,6.735 47.274,7.299C46.954,7.395 46.623,7.443 46.292,7.443" style="fill:rgb(161,96,10);fill-rule:nonzero;"/>
        </g>
        <g transform="matrix(1,0,0,1,115.905,1.748)">
            <path d="M0,38.76C-0.311,38.76 -0.598,38.543 -0.687,38.211C-6.598,16.113 -26.335,1.493 -48.704,2.614C-68.158,3.606 -85.321,17.909 -91.413,38.204C-91.531,38.601 -91.933,38.822 -92.309,38.696C-92.685,38.569 -92.893,38.144 -92.773,37.747C-86.502,16.853 -68.819,2.128 -48.772,1.106C-25.738,-0.062 -5.406,15.021 0.687,37.799C0.795,38.2 0.574,38.618 0.195,38.731C0.13,38.751 0.064,38.76 0,38.76" style="fill:white;fill-rule:nonzero;"/>
        </g>
        <g transform="matrix(1,0,0,1,69.5989,38.4872)">
            <path d="M0,-34.758C21.629,-34.758 40.411,-20.218 46.174,1.323C46.196,1.409 46.258,1.448 46.307,1.448C46.312,1.448 46.324,1.447 46.34,1.442C46.409,1.421 46.47,1.319 46.439,1.206C40.418,-21.301 20.304,-36.231 -2.438,-35.06C-22.243,-34.051 -39.716,-19.49 -45.918,1.172C-45.952,1.284 -45.894,1.389 -45.82,1.413C-45.716,1.395 -45.676,1.366 -45.656,1.301C-39.495,-19.227 -22.123,-33.694 -2.428,-34.698C-1.615,-34.738 -0.805,-34.758 0,-34.758M46.307,2.594C45.729,2.594 45.219,2.193 45.065,1.618C39.23,-20.196 19.737,-34.671 -2.37,-33.552C-21.581,-32.573 -38.535,-18.434 -44.558,1.63C-44.661,1.972 -44.898,2.263 -45.209,2.424C-45.514,2.581 -45.861,2.609 -46.186,2.5C-46.851,2.276 -47.223,1.533 -47.017,0.843C-40.675,-20.283 -22.784,-35.172 -2.496,-36.206C20.808,-37.367 41.386,-22.124 47.548,0.911C47.732,1.609 47.336,2.34 46.666,2.541C46.545,2.576 46.425,2.594 46.307,2.594" style="fill:white;fill-rule:nonzero;"/>
        </g>
        <g transform="matrix(-0.463967,-7.04729,-7.04729,0.463967,97.4816,96.6427)">
            <path d="M0.675,0.893C0.675,0.893 0.274,0.558 0.216,0.055C0.158,-0.448 0.502,-0.893 0.502,-0.893C0.502,-0.893 0.851,-0.438 0.892,0.045C0.893,0.053 0.893,0.06 0.894,0.067C0.925,0.539 0.675,0.893 0.675,0.893Z" style="fill:url(#_Linear11);fill-rule:nonzero;"/>
        </g>
        <g transform="matrix(2.50689,-2.94407,-2.94407,-2.50689,94.1519,96.1079)">
            <path d="M0.203,1.279C0.203,1.279 0.105,0.329 0.67,-0.404C1.193,-1.083 2.106,-1.261 2.235,-1.279C1.785,-1.058 1.315,-0.675 0.932,-0.187C0.541,0.312 0.305,0.83 0.205,1.278C0.204,1.278 0.203,1.279 0.203,1.279Z" style="fill:url(#_Linear12);fill-rule:nonzero;"/>
        </g>
        <g transform="matrix(1.26362,-8.1131,8.1131,1.26362,102.587,105.096)">
            <path d="M0.594,-0.314C0.143,-0.356 -0.234,-0.139 -0.234,-0.139C-0.234,-0.139 0.124,0.284 0.594,0.318C1.064,0.351 1.427,-0.003 1.427,-0.003C1.427,-0.003 1.045,-0.273 0.594,-0.314Z" style="fill:url(#_Linear13);fill-rule:nonzero;"/>
        </g>
        <g transform="matrix(1.15915,0.365344,-0.365344,1.15915,100.634,99.5001)">
            <path d="M0.213,0.241C0.395,3.291 2.231,5.59 2.231,5.59C2.231,5.59 2.234,5.587 2.235,5.585C1.773,4.116 1.505,2.197 1.363,0.06C1.224,-2.031 1.227,-3.989 1.421,-5.591C1.241,-5.208 0.045,-2.588 0.213,0.241Z" style="fill:url(#_Linear14);fill-rule:nonzero;"/>
        </g>
        <g transform="matrix(1.49633,4.36819,4.36819,-1.49633,50.0888,101.769)">
            <path d="M0.542,-0.216C0.858,-0.102 1.116,0.211 1.116,0.211C1.116,0.211 0.849,0.308 0.542,0.19C0.235,0.071 -0.01,-0.211 -0.01,-0.211C-0.01,-0.211 0.226,-0.33 0.542,-0.216Z" style="fill:url(#_Linear15);fill-rule:nonzero;"/>
        </g>
        <g transform="matrix(0.613713,-0.355688,-0.355688,-0.613713,49.918,104.761)">
            <path d="M0.262,0.326C0.568,-1.674 2.019,-3.586 2.234,-3.848C1.668,-2.716 1.213,-1.309 0.981,0.147C0.745,1.635 0.776,2.917 0.994,3.843C0.993,3.845 0.993,3.847 0.993,3.847C0.993,3.847 -0.071,2.487 0.262,0.326Z" style="fill:url(#_Linear16);fill-rule:nonzero;"/>
        </g>
        <g transform="matrix(0.154721,1.80474,-1.80474,0.154721,49.6871,106.239)">
            <path d="M0,0.229C0.019,1.089 0.473,1.567 0.473,1.567C0.473,1.567 1.032,0.607 0.999,-0.266C0.965,-1.137 0.381,-1.567 0.381,-1.567C0.381,-1.567 0.076,-0.852 0.012,-0.099C0.002,0.011 -0.002,0.121 0,0.229Z" style="fill:url(#_Linear17);fill-rule:nonzero;"/>
        </g>
        <g transform="matrix(1.59956,1.20467,-1.20467,1.59956,47.8046,105.539)">
            <path d="M0.811,-0.152C0.243,0.381 0.197,0.975 0.197,0.975C0.197,0.975 0.198,0.975 0.198,0.975C0.373,0.675 0.679,0.32 1.073,-0.051C1.457,-0.416 1.861,-0.738 2.235,-0.975C2.137,-0.94 1.538,-0.718 1.039,-0.342C0.959,-0.282 0.883,-0.219 0.811,-0.152Z" style="fill:url(#_Linear18);fill-rule:nonzero;"/>
        </g>
        <g transform="matrix(1,0,0,1,104.103,114.753)">
            <path d="M0,-21.469C-16.846,-6.377 -34.99,0.227 -58.688,-11.065C-32.419,0.232 -16.02,-8.192 -0.311,-21.701C-0.187,-21.609 -0.124,-21.562 0,-21.469" style="fill:rgb(255,244,96);"/>
        </g>
        <g transform="matrix(1,0,0,1,54.5247,100.27)">
            <path d="M0,6.834C7.904,9.231 15.416,9.6 22.773,7.971C31.576,6.022 40.271,1.133 49.353,-6.976L49.273,-7.034C34.72,5.461 20.408,12.579 0,6.834M13.708,9.251C6.386,9.251 -1.17,7.361 -9.171,3.549C-9.242,3.516 -9.273,3.432 -9.24,3.36C-9.208,3.289 -9.124,3.259 -9.053,3.287C16.336,14.208 32.585,6.94 49.175,-7.327C49.223,-7.373 49.299,-7.374 49.354,-7.333L49.664,-7.101C49.698,-7.075 49.72,-7.034 49.722,-6.992C49.725,-6.949 49.706,-6.907 49.674,-6.879C40.509,1.333 31.729,6.282 22.835,8.25C19.824,8.918 16.786,9.251 13.708,9.251" style="fill:rgb(255,244,96);fill-rule:nonzero;"/>
        </g>
        <g transform="matrix(7.76475,4.66304,4.66304,-7.76475,39.5182,99.806)">
            <path d="M0.554,-0.111C0.799,-0.116 0.987,-0.004 0.987,-0.004C0.987,-0.004 0.789,0.08 0.554,0.079C0.32,0.078 0.119,0.004 0.119,0.004C0.119,0.004 0.31,-0.107 0.554,-0.111Z" style="fill:url(#_Linear19);fill-rule:nonzero;"/>
        </g>
        <g transform="matrix(0.31923,-0.743614,-0.743614,-0.31923,43.3178,103.533)">
            <path d="M0.303,0.133C-0.088,-2.371 0.712,-4.494 0.832,-4.787C0.622,-3.477 0.616,-1.788 0.888,0.026C1.163,1.882 1.677,3.548 2.235,4.782C2.236,4.784 2.235,4.786 2.235,4.786C2.235,4.786 0.726,2.837 0.303,0.133Z" style="fill:url(#_Linear20);fill-rule:nonzero;"/>
        </g>
        <g transform="matrix(-0.410777,-6.23937,-6.23937,0.410777,91.637,101.063)">
            <path d="M0.758,0.873C0.758,0.873 0.345,0.596 0.235,0.106C0.126,-0.383 0.398,-0.873 0.398,-0.873C0.398,-0.873 0.781,-0.488 0.873,-0.014C0.884,0.041 0.89,0.094 0.894,0.146C0.92,0.549 0.758,0.873 0.758,0.873Z" style="fill:url(#_Linear21);fill-rule:nonzero;"/>
        </g>
        <g transform="matrix(1.9298,-2.26634,-2.26634,-1.9298,89.0099,100.28)">
            <path d="M0.239,1.575C0.239,1.575 0.022,0.555 0.574,-0.343C1.086,-1.176 2.092,-1.533 2.235,-1.576C1.758,-1.255 1.277,-0.756 0.901,-0.156C0.517,0.457 0.306,1.066 0.24,1.574C0.24,1.575 0.239,1.575 0.239,1.575Z" style="fill:url(#_Linear22);fill-rule:nonzero;"/>
        </g>
        <g transform="matrix(2.81583,-10.3423,10.3423,2.81583,93.7089,110.395)">
            <path d="M0.574,-0.174C0.279,-0.217 0.034,-0.082 0.034,-0.082C0.034,-0.082 0.268,0.205 0.574,0.242C0.88,0.28 1.119,0.063 1.119,0.063C1.119,0.063 0.869,-0.132 0.574,-0.174Z" style="fill:url(#_Linear23);fill-rule:nonzero;"/>
        </g>
        <g transform="matrix(1.08521,0.34204,-0.34204,1.08521,93.2938,103.794)">
            <path d="M0.237,0.063C-0.051,2.853 1.309,5.11 1.309,5.11C1.309,5.11 1.311,5.108 1.314,5.106C1.095,3.733 1.121,1.966 1.31,0.013C1.494,-1.898 1.802,-3.676 2.236,-5.111C2.011,-4.783 0.504,-2.521 0.237,0.063Z" style="fill:url(#_Linear24);fill-rule:nonzero;"/>
        </g>
        <g transform="matrix(-0.367994,-5.58954,-5.58954,0.367994,84.6943,105.251)">
            <path d="M0.828,0.823C0.828,0.823 0.423,0.61 0.269,0.151C0.115,-0.31 0.307,-0.823 0.307,-0.823C0.307,-0.823 0.702,-0.516 0.838,-0.068C0.87,0.037 0.887,0.141 0.893,0.239C0.914,0.563 0.828,0.823 0.828,0.823Z" style="fill:url(#_Linear25);fill-rule:nonzero;"/>
        </g>
        <g transform="matrix(1.44757,-1.70002,-1.70002,-1.44757,82.6343,104.262)">
            <path d="M0.316,1.932C0.316,1.932 -0.043,0.84 0.485,-0.256C0.974,-1.271 2.076,-1.857 2.235,-1.932C1.733,-1.488 1.246,-0.847 0.885,-0.113C0.517,0.636 0.339,1.353 0.318,1.931C0.317,1.931 0.316,1.932 0.316,1.932Z" style="fill:url(#_Linear26);fill-rule:nonzero;"/>
        </g>
        <g transform="matrix(2.68276,-6.82198,6.82198,2.68276,85.4708,112.445)">
            <path d="M0.613,-0.245C0.249,-0.32 -0.051,-0.166 -0.051,-0.166C-0.051,-0.166 0.237,0.203 0.613,0.272C0.989,0.342 1.286,0.095 1.286,0.095C1.286,0.095 0.977,-0.17 0.613,-0.245Z" style="fill:url(#_Linear27);fill-rule:nonzero;"/>
        </g>
        <g transform="matrix(1.43326,0.451737,-0.451737,1.43326,84.8852,107.507)">
            <path d="M0.378,-0.062C-0.109,1.684 0.538,3.196 0.538,3.196C0.538,3.196 0.541,3.194 0.542,3.194C0.539,2.313 0.736,1.201 1.069,-0.02C1.393,-1.214 1.792,-2.318 2.236,-3.196C2.054,-3.004 0.829,-1.678 0.378,-0.062Z" style="fill:url(#_Linear28);fill-rule:nonzero;"/>
        </g>
        <g transform="matrix(-0.337412,-5.12502,-5.12502,0.337412,77.707,108.185)">
            <path d="M0.878,0.737C0.878,0.737 0.502,0.59 0.318,0.18C0.133,-0.231 0.24,-0.737 0.24,-0.737C0.24,-0.737 0.619,-0.515 0.788,-0.112C0.855,0.048 0.883,0.214 0.893,0.357C0.907,0.574 0.878,0.737 0.878,0.737Z" style="fill:url(#_Linear29);fill-rule:nonzero;"/>
        </g>
        <g transform="matrix(1.04775,-1.23047,-1.23047,-1.04775,76.1086,106.981)">
            <path d="M0.447,2.379C0.447,2.379 -0.085,1.213 0.403,-0.132C0.856,-1.378 2.06,-2.26 2.235,-2.378C1.708,-1.776 1.223,-0.958 0.887,-0.056C0.545,0.867 0.414,1.715 0.448,2.378L0.447,2.379Z" style="fill:url(#_Linear30);fill-rule:nonzero;"/>
        </g>
        <g transform="matrix(2.25516,-4.32948,4.32948,2.25516,77.6257,113.112)">
            <path d="M0.596,-0.315C0.143,-0.441 -0.229,-0.271 -0.229,-0.271C-0.229,-0.271 0.129,0.212 0.596,0.332C1.063,0.453 1.435,0.178 1.435,0.178C1.435,0.178 1.049,-0.188 0.596,-0.315Z" style="fill:url(#_Linear31);fill-rule:nonzero;"/>
        </g>
        <g transform="matrix(1.71149,0.53943,-0.53943,1.71149,76.6316,109.719)">
            <path d="M0.54,-0.116C-0.013,1.039 0.269,2.115 0.269,2.115C0.269,2.115 0.271,2.114 0.271,2.113C0.37,1.513 0.636,0.771 1.017,-0.038C1.391,-0.828 1.811,-1.551 2.235,-2.115C2.084,-1.999 1.052,-1.185 0.54,-0.116Z" style="fill:url(#_Linear32);fill-rule:nonzero;"/>
        </g>
        <g transform="matrix(0.222091,-4.61277,-4.61277,-0.222091,69.803,109.506)">
            <path d="M0.878,0.738C0.878,0.738 0.502,0.591 0.317,0.18C0.133,-0.231 0.24,-0.737 0.24,-0.737C0.24,-0.737 0.619,-0.516 0.788,-0.113C0.893,0.137 0.902,0.404 0.894,0.57C0.889,0.673 0.878,0.738 0.878,0.738Z" style="fill:url(#_Linear33);fill-rule:nonzero;"/>
        </g>
        <g transform="matrix(1.06377,-0.994147,-0.994147,-1.06377,68.4939,108.269)">
            <path d="M0.447,2.375C0.447,2.375 -0.085,1.211 0.404,-0.132C0.856,-1.376 2.06,-2.258 2.236,-2.376C1.709,-1.774 1.223,-0.957 0.887,-0.056C0.544,0.864 0.415,1.712 0.448,2.374L0.447,2.375Z" style="fill:url(#_Linear34);fill-rule:nonzero;"/>
        </g>
        <g transform="matrix(1.63092,4.07726,-4.07726,1.63092,69.6973,109.493)">
            <path d="M0.297,0.157C0.445,0.598 0.789,0.81 0.797,0.815L0.799,0.811C0.815,0.762 0.987,0.227 0.833,-0.207C0.67,-0.662 0.234,-0.815 0.234,-0.815C0.234,-0.815 0.148,-0.29 0.297,0.157Z" style="fill:url(#_Linear35);fill-rule:nonzero;"/>
        </g>
        <g transform="matrix(1.47651,0.657914,-0.657914,1.47651,68.6809,110.766)">
            <path d="M0.541,-0.115C-0.013,1.039 0.269,2.114 0.269,2.114L0.271,2.113C0.369,1.513 0.637,0.771 1.017,-0.036C1.39,-0.827 1.811,-1.549 2.235,-2.114C2.084,-1.997 1.053,-1.183 0.541,-0.115Z" style="fill:url(#_Linear36);fill-rule:nonzero;"/>
        </g>
        <g transform="matrix(2.86646,3.64271,3.64271,-2.86646,61.8241,104.929)">
            <path d="M0.523,-0.252C0.907,-0.16 1.224,0.178 1.224,0.178C1.224,0.178 0.895,0.324 0.523,0.226C0.152,0.129 -0.142,-0.167 -0.142,-0.167C-0.142,-0.167 0.14,-0.343 0.523,-0.252Z" style="fill:url(#_Linear37);fill-rule:nonzero;"/>
        </g>
        <g transform="matrix(0.840624,-0.640819,-0.640819,-0.840624,62.1724,107.815)">
            <path d="M0.329,0.048C0.724,-1.502 2.042,-2.796 2.235,-2.973C1.688,-2.157 1.21,-1.101 0.914,0.024C0.612,1.175 0.547,2.199 0.656,2.97C0.655,2.972 0.655,2.972 0.655,2.972C0.655,2.972 -0.1,1.722 0.329,0.048Z" style="fill:url(#_Linear38);fill-rule:nonzero;"/>
        </g>
        <g transform="matrix(0.908644,3.15673,-3.15673,0.908644,62.5083,109.153)">
            <path d="M0.227,0.157C0.305,0.705 0.651,0.999 0.651,0.999C0.651,0.999 0.97,0.363 0.881,-0.194C0.791,-0.751 0.349,-0.999 0.349,-0.999C0.349,-0.999 0.343,-0.981 0.334,-0.949C0.289,-0.791 0.163,-0.296 0.227,0.157Z" style="fill:url(#_Linear39);fill-rule:nonzero;"/>
        </g>
        <g transform="matrix(1.63317,0.933833,-0.933833,1.63317,60.968,109.589)">
            <path d="M0.693,-0.139C0.124,0.642 0.201,1.431 0.201,1.431C0.201,1.431 0.202,1.431 0.202,1.43C0.351,1.011 0.645,0.501 1.039,-0.046C1.423,-0.58 1.837,-1.063 2.236,-1.431C2.223,-1.425 2.204,-1.414 2.178,-1.399C1.939,-1.262 1.169,-0.793 0.693,-0.139Z" style="fill:url(#_Linear40);fill-rule:nonzero;"/>
        </g>
        <g transform="matrix(1.99382,3.90422,3.90422,-1.99382,56.1344,103.584)">
            <path d="M0.523,-0.253C0.907,-0.16 1.224,0.179 1.224,0.179C1.224,0.179 0.895,0.325 0.523,0.227C0.152,0.129 -0.142,-0.168 -0.142,-0.168C-0.142,-0.168 0.14,-0.345 0.523,-0.253Z" style="fill:url(#_Linear41);fill-rule:nonzero;"/>
        </g>
        <g transform="matrix(0.89958,-0.442409,-0.442409,-0.89958,55.9264,106.328)">
            <path d="M0.329,0.048C0.726,-1.498 2.042,-2.791 2.236,-2.967C1.687,-2.153 1.21,-1.098 0.914,0.024C0.612,1.172 0.546,2.194 0.657,2.963C0.655,2.964 0.653,2.966 0.653,2.966C0.653,2.966 -0.1,1.719 0.329,0.048Z" style="fill:url(#_Linear42);fill-rule:nonzero;"/>
        </g>
        <g transform="matrix(0.26567,3.0989,-3.0989,0.26567,55.9931,107.632)">
            <path d="M0.227,0.158C0.306,0.706 0.652,1 0.652,1C0.652,1 0.971,0.364 0.88,-0.194C0.79,-0.752 0.348,-1.001 0.348,-1.001C0.348,-1.001 0.25,-0.702 0.219,-0.334C0.205,-0.177 0.204,-0.007 0.227,0.158Z" style="fill:url(#_Linear43);fill-rule:nonzero;"/>
        </g>
        <g transform="matrix(1.34779,1.16715,-1.16715,1.34779,54.4791,107.755)">
            <path d="M0.693,-0.139C0.124,0.643 0.2,1.432 0.2,1.432C0.2,1.432 0.202,1.432 0.202,1.431C0.351,1.011 0.645,0.501 1.038,-0.046C1.423,-0.581 1.838,-1.065 2.235,-1.433C2.148,-1.385 1.716,-1.142 1.282,-0.766C1.073,-0.585 0.864,-0.374 0.693,-0.139Z" style="fill:url(#_Linear44);fill-rule:nonzero;"/>
        </g>
        <g transform="matrix(1,0,0,1,132.85,17.1885)">
            <path d="M0,-5.306C-0.339,-5.495 -0.881,-5.59 -1.627,-5.59L-2.774,-5.59L-2.774,-2.828L-1.561,-2.828C-0.991,-2.828 -0.564,-2.885 -0.28,-2.998C0.245,-3.206 0.508,-3.603 0.508,-4.19C0.508,-4.745 0.338,-5.117 0,-5.306M-1.45,-6.508C-0.505,-6.508 0.189,-6.416 0.631,-6.233C1.419,-5.905 1.812,-5.261 1.812,-4.301C1.812,-3.619 1.565,-3.118 1.069,-2.796C0.806,-2.625 0.438,-2.502 -0.032,-2.427C0.563,-2.332 0.999,-2.083 1.275,-1.68C1.552,-1.277 1.689,-0.883 1.689,-0.499L1.689,0.058C1.689,0.235 1.696,0.424 1.709,0.625C1.722,0.827 1.743,0.959 1.775,1.022L1.822,1.117L0.564,1.117C0.559,1.091 0.552,1.067 0.545,1.042C0.539,1.016 0.532,0.988 0.526,0.956L0.498,0.712L0.498,0.108C0.498,-0.772 0.258,-1.354 -0.221,-1.637C-0.505,-1.8 -1.003,-1.882 -1.716,-1.882L-2.774,-1.882L-2.774,1.117L-4.118,1.117L-4.118,-6.508L-1.45,-6.508ZM-5.537,-6.895C-6.697,-5.728 -7.277,-4.319 -7.277,-2.667C-7.277,-1.002 -6.7,0.417 -5.547,1.59C-4.387,2.762 -2.977,3.349 -1.318,3.349C0.341,3.349 1.75,2.762 2.91,1.59C4.07,0.417 4.65,-1.002 4.65,-2.667C4.65,-4.319 4.07,-5.728 2.91,-6.895C1.743,-8.068 0.334,-8.655 -1.318,-8.655C-2.964,-8.655 -4.37,-8.068 -5.537,-6.895M3.601,2.252C2.245,3.614 0.605,4.295 -1.318,4.295C-3.241,4.295 -4.878,3.614 -6.228,2.252C-7.57,0.896 -8.242,-0.747 -8.242,-2.677C-8.242,-4.587 -7.564,-6.221 -6.209,-7.577C-4.859,-8.926 -3.229,-9.601 -1.318,-9.601C0.605,-9.601 2.245,-8.926 3.601,-7.577C4.957,-6.227 5.635,-4.594 5.635,-2.677C5.635,-0.753 4.957,0.89 3.601,2.252" style="fill:rgb(161,96,10);fill-rule:nonzero;"/>
        </g>
    </g>
    <defs>
        <linearGradient id="_Linear1" x1="0" y1="0" x2="1" y2="0" gradientUnits="userSpaceOnUse" gradientTransform="matrix(-0.626002,0.779822,0.779822,0.626002,-0.195161,0.0935983)"><stop offset="0" style="stop-color:rgb(19,135,72);stop-opacity:1"/><stop offset="1" style="stop-color:rgb(160,189,47);stop-opacity:1"/></linearGradient>
        <linearGradient id="_Linear2" x1="0" y1="0" x2="1" y2="0" gradientUnits="userSpaceOnUse" gradientTransform="matrix(0.388774,0.921333,0.921333,-0.388774,0.308468,-0.46497)"><stop offset="0" style="stop-color:rgb(121,195,102);stop-opacity:1"/><stop offset="0" style="stop-color:rgb(121,195,102);stop-opacity:1"/><stop offset="0.48" style="stop-color:rgb(185,205,109);stop-opacity:1"/><stop offset="0.66" style="stop-color:rgb(203,217,147);stop-opacity:1"/><stop offset="1" style="stop-color:rgb(203,217,147);stop-opacity:1"/></linearGradient>
        <linearGradient id="_Linear3" x1="0" y1="0" x2="1" y2="0" gradientUnits="userSpaceOnUse" gradientTransform="matrix(0.38878,0.92133,0.92133,-0.38878,0.305612,-0.460668)"><stop offset="0" style="stop-color:rgb(121,195,102);stop-opacity:1"/><stop offset="0" style="stop-color:rgb(121,195,102);stop-opacity:1"/><stop offset="0.48" style="stop-color:rgb(185,205,109);stop-opacity:1"/><stop offset="0.66" style="stop-color:rgb(203,217,147);stop-opacity:1"/><stop offset="1" style="stop-color:rgb(203,217,147);stop-opacity:1"/></linearGradient>
        <linearGradient id="_Linear4" x1="0" y1="0" x2="1" y2="0" gradientUnits="userSpaceOnUse" gradientTransform="matrix(0.392428,0.919783,0.919783,-0.392428,0.305045,-0.461797)"><stop offset="0" style="stop-color:rgb(121,195,102);stop-opacity:1"/><stop offset="0" style="stop-color:rgb(121,195,102);stop-opacity:1"/><stop offset="0.48" style="stop-color:rgb(185,205,109);stop-opacity:1"/><stop offset="0.66" style="stop-color:rgb(203,217,147);stop-opacity:1"/><stop offset="1" style="stop-color:rgb(203,217,147);stop-opacity:1"/></linearGradient>
        <linearGradient id="_Linear5" x1="0" y1="0" x2="1" y2="0" gradientUnits="userSpaceOnUse" gradientTransform="matrix(0.394944,0.918705,0.918705,-0.394944,0.306034,-0.464676)"><stop offset="0" style="stop-color:rgb(121,195,102);stop-opacity:1"/><stop offset="0" style="stop-color:rgb(121,195,102);stop-opacity:1"/><stop offset="0.48" style="stop-color:rgb(185,205,109);stop-opacity:1"/><stop offset="0.66" style="stop-color:rgb(203,217,147);stop-opacity:1"/><stop offset="1" style="stop-color:rgb(203,217,147);stop-opacity:1"/></linearGradient>
        <linearGradient id="_Linear6" x1="0" y1="0" x2="1" y2="0" gradientUnits="userSpaceOnUse" gradientTransform="matrix(0.389639,0.920968,0.920968,-0.389639,0.305501,-0.460967)"><stop offset="0" style="stop-color:rgb(121,195,102);stop-opacity:1"/><stop offset="0" style="stop-color:rgb(121,195,102);stop-opacity:1"/><stop offset="0.48" style="stop-color:rgb(185,205,109);stop-opacity:1"/><stop offset="0.66" style="stop-color:rgb(203,217,147);stop-opacity:1"/><stop offset="1" style="stop-color:rgb(203,217,147);stop-opacity:1"/></linearGradient>
        <linearGradient id="_Linear7" x1="0" y1="0" x2="1" y2="0" gradientUnits="userSpaceOnUse" gradientTransform="matrix(0.379436,0.925218,0.925218,-0.379436,0.31028,-0.462606)"><stop offset="0" style="stop-color:rgb(121,195,102);stop-opacity:1"/><stop offset="0" style="stop-color:rgb(121,195,102);stop-opacity:1"/><stop offset="0.48" style="stop-color:rgb(185,205,109);stop-opacity:1"/><stop offset="0.66" style="stop-color:rgb(203,217,147);stop-opacity:1"/><stop offset="1" style="stop-color:rgb(203,217,147);stop-opacity:1"/></linearGradient>
        <linearGradient id="_Linear8" x1="0" y1="0" x2="1" y2="0" gradientUnits="userSpaceOnUse" gradientTransform="matrix(1,0,0,-1,0,8.4569e-06)"><stop offset="0" style="stop-color:rgb(121,195,102);stop-opacity:1"/><stop offset="0" style="stop-color:rgb(121,195,102);stop-opacity:1"/><stop offset="0.48" style="stop-color:rgb(185,205,109);stop-opacity:1"/><stop offset="0.66" style="stop-color:rgb(203,217,147);stop-opacity:1"/><stop offset="1" style="stop-color:rgb(203,217,147);stop-opacity:1"/></linearGradient>
        <linearGradient id="_Linear9" x1="0" y1="0" x2="1" y2="0" gradientUnits="userSpaceOnUse" gradientTransform="matrix(1,0,0,-1,0,-1.21287e-05)"><stop offset="0" style="stop-color:rgb(121,195,102);stop-opacity:1"/><stop offset="0" style="stop-color:rgb(121,195,102);stop-opacity:1"/><stop offset="0.48" style="stop-color:rgb(185,205,109);stop-opacity:1"/><stop offset="0.66" style="stop-color:rgb(203,217,147);stop-opacity:1"/><stop offset="1" style="stop-color:rgb(203,217,147);stop-opacity:1"/></linearGradient>
        <linearGradient id="_Linear10" x1="0" y1="0" x2="1" y2="0" gradientUnits="userSpaceOnUse" gradientTransform="matrix(1,0,0,-1,0,8.0786e-05)"><stop offset="0" style="stop-color:rgb(121,195,102);stop-opacity:1"/><stop offset="0" style="stop-color:rgb(121,195,102);stop-opacity:1"/><stop offset="0.48" style="stop-color:rgb(185,205,109);stop-opacity:1"/><stop offset="0.66" style="stop-color:rgb(203,217,147);stop-opacity:1"/><stop offset="1" style="stop-color:rgb(203,217,147);stop-opacity:1"/></linearGradient>
        <linearGradient id="_Linear11" x1="0" y1="0" x2="1" y2="0" gradientUnits="userSpaceOnUse" gradientTransform="matrix(1,1.38778e-17,1.38778e-17,-1,0,3.78015e-05)"><stop offset="0" style="stop-color:rgb(246,174,26);stop-opacity:1"/><stop offset="0.4" style="stop-color:rgb(246,174,26);stop-opacity:1"/><stop offset="0.65" style="stop-color:rgb(255,221,0);stop-opacity:1"/><stop offset="0.97" style="stop-color:rgb(255,203,3);stop-opacity:1"/><stop offset="1" style="stop-color:rgb(255,203,3);stop-opacity:1"/></linearGradient>
        <linearGradient id="_Linear12" x1="0" y1="0" x2="1" y2="0" gradientUnits="userSpaceOnUse" gradientTransform="matrix(1,0,0,-1,0,-9.37948e-05)"><stop offset="0" style="stop-color:rgb(238,214,136);stop-opacity:1"/><stop offset="0.13" style="stop-color:rgb(238,214,136);stop-opacity:1"/><stop offset="0.72" style="stop-color:rgb(168,127,38);stop-opacity:1"/><stop offset="0.98" style="stop-color:rgb(140,107,26);stop-opacity:1"/><stop offset="1" style="stop-color:rgb(140,107,26);stop-opacity:1"/></linearGradient>
        <linearGradient id="_Linear13" x1="0" y1="0" x2="1" y2="0" gradientUnits="userSpaceOnUse" gradientTransform="matrix(-0.360767,0.932656,0.932656,0.360767,0.774422,-0.530781)"><stop offset="0" style="stop-color:rgb(246,174,26);stop-opacity:1"/><stop offset="0.4" style="stop-color:rgb(246,174,26);stop-opacity:1"/><stop offset="0.65" style="stop-color:rgb(255,221,0);stop-opacity:1"/><stop offset="0.97" style="stop-color:rgb(255,203,3);stop-opacity:1"/><stop offset="1" style="stop-color:rgb(255,203,3);stop-opacity:1"/></linearGradient>
        <linearGradient id="_Linear14" x1="0" y1="0" x2="1" y2="0" gradientUnits="userSpaceOnUse" gradientTransform="matrix(1,0,0,-1,0,-0.000631329)"><stop offset="0" style="stop-color:rgb(238,214,136);stop-opacity:1"/><stop offset="0.13" style="stop-color:rgb(238,214,136);stop-opacity:1"/><stop offset="0.72" style="stop-color:rgb(168,127,38);stop-opacity:1"/><stop offset="0.98" style="stop-color:rgb(140,107,26);stop-opacity:1"/><stop offset="1" style="stop-color:rgb(140,107,26);stop-opacity:1"/></linearGradient>
        <linearGradient id="_Linear15" x1="0" y1="0" x2="1" y2="0" gradientUnits="userSpaceOnUse" gradientTransform="matrix(-0.822815,0.56831,0.56831,0.822815,1.00805,-0.314286)"><stop offset="0" style="stop-color:rgb(246,174,26);stop-opacity:1"/><stop offset="0.4" style="stop-color:rgb(246,174,26);stop-opacity:1"/><stop offset="0.65" style="stop-color:rgb(255,242,0);stop-opacity:1"/><stop offset="1" style="stop-color:rgb(255,242,0);stop-opacity:1"/></linearGradient>
        <linearGradient id="_Linear16" x1="0" y1="0" x2="1" y2="0" gradientUnits="userSpaceOnUse" gradientTransform="matrix(1,0,0,-1,0,-0.000574686)"><stop offset="0" style="stop-color:rgb(238,214,136);stop-opacity:1"/><stop offset="0.13" style="stop-color:rgb(238,214,136);stop-opacity:1"/><stop offset="0.72" style="stop-color:rgb(182,147,72);stop-opacity:1"/><stop offset="0.98" style="stop-color:rgb(160,130,62);stop-opacity:1"/><stop offset="1" style="stop-color:rgb(160,130,62);stop-opacity:1"/></linearGradient>
        <linearGradient id="_Linear17" x1="0" y1="0" x2="1" y2="0" gradientUnits="userSpaceOnUse" gradientTransform="matrix(1,0,0,-1,0,-0.000394396)"><stop offset="0" style="stop-color:rgb(246,174,26);stop-opacity:1"/><stop offset="0.4" style="stop-color:rgb(246,174,26);stop-opacity:1"/><stop offset="0.65" style="stop-color:rgb(255,242,0);stop-opacity:1"/><stop offset="1" style="stop-color:rgb(255,242,0);stop-opacity:1"/></linearGradient>
        <linearGradient id="_Linear18" x1="0" y1="0" x2="1" y2="0" gradientUnits="userSpaceOnUse" gradientTransform="matrix(1,0,0,-1,0,0.000122898)"><stop offset="0" style="stop-color:rgb(238,214,136);stop-opacity:1"/><stop offset="0.13" style="stop-color:rgb(238,214,136);stop-opacity:1"/><stop offset="0.72" style="stop-color:rgb(182,147,72);stop-opacity:1"/><stop offset="0.98" style="stop-color:rgb(160,130,62);stop-opacity:1"/><stop offset="1" style="stop-color:rgb(160,130,62);stop-opacity:1"/></linearGradient>
        <linearGradient id="_Linear19" x1="0" y1="0" x2="1" y2="0" gradientUnits="userSpaceOnUse" gradientTransform="matrix(-0.787303,0.616567,0.616567,0.787303,0.98827,-0.340924)"><stop offset="0" style="stop-color:rgb(246,174,26);stop-opacity:1"/><stop offset="0.4" style="stop-color:rgb(246,174,26);stop-opacity:1"/><stop offset="0.65" style="stop-color:rgb(255,242,0);stop-opacity:1"/><stop offset="1" style="stop-color:rgb(255,242,0);stop-opacity:1"/></linearGradient>
        <linearGradient id="_Linear20" x1="0" y1="0" x2="1" y2="0" gradientUnits="userSpaceOnUse" gradientTransform="matrix(1,0,0,-1,0,-0.000550139)"><stop offset="0" style="stop-color:rgb(238,214,136);stop-opacity:1"/><stop offset="0.13" style="stop-color:rgb(238,214,136);stop-opacity:1"/><stop offset="0.72" style="stop-color:rgb(182,147,72);stop-opacity:1"/><stop offset="0.98" style="stop-color:rgb(160,130,62);stop-opacity:1"/><stop offset="1" style="stop-color:rgb(160,130,62);stop-opacity:1"/></linearGradient>
        <linearGradient id="_Linear21" x1="0" y1="0" x2="1" y2="0" gradientUnits="userSpaceOnUse" gradientTransform="matrix(1,1.38778e-17,1.38778e-17,-1,0,-8.94058e-05)"><stop offset="0" style="stop-color:rgb(246,174,26);stop-opacity:1"/><stop offset="0.4" style="stop-color:rgb(246,174,26);stop-opacity:1"/><stop offset="0.65" style="stop-color:rgb(255,221,0);stop-opacity:1"/><stop offset="0.97" style="stop-color:rgb(255,203,3);stop-opacity:1"/><stop offset="1" style="stop-color:rgb(255,203,3);stop-opacity:1"/></linearGradient>
        <linearGradient id="_Linear22" x1="0" y1="0" x2="1" y2="0" gradientUnits="userSpaceOnUse" gradientTransform="matrix(1,-5.55112e-17,-5.55112e-17,-1,0,-0.000337987)"><stop offset="0" style="stop-color:rgb(238,214,136);stop-opacity:1"/><stop offset="0.13" style="stop-color:rgb(238,214,136);stop-opacity:1"/><stop offset="0.72" style="stop-color:rgb(168,127,38);stop-opacity:1"/><stop offset="0.98" style="stop-color:rgb(140,107,26);stop-opacity:1"/><stop offset="1" style="stop-color:rgb(140,107,26);stop-opacity:1"/></linearGradient>
        <linearGradient id="_Linear23" x1="0" y1="0" x2="1" y2="0" gradientUnits="userSpaceOnUse" gradientTransform="matrix(-0.724712,0.689052,0.689052,0.724712,0.9769,-0.390289)"><stop offset="0" style="stop-color:rgb(246,174,26);stop-opacity:1"/><stop offset="0.4" style="stop-color:rgb(246,174,26);stop-opacity:1"/><stop offset="0.65" style="stop-color:rgb(255,221,0);stop-opacity:1"/><stop offset="0.97" style="stop-color:rgb(255,203,3);stop-opacity:1"/><stop offset="1" style="stop-color:rgb(255,203,3);stop-opacity:1"/></linearGradient>
        <linearGradient id="_Linear24" x1="0" y1="0" x2="1" y2="0" gradientUnits="userSpaceOnUse" gradientTransform="matrix(1,5.55112e-17,5.55112e-17,-1,0,-0.000355899)"><stop offset="0" style="stop-color:rgb(238,214,136);stop-opacity:1"/><stop offset="0.13" style="stop-color:rgb(238,214,136);stop-opacity:1"/><stop offset="0.72" style="stop-color:rgb(168,127,38);stop-opacity:1"/><stop offset="0.98" style="stop-color:rgb(140,107,26);stop-opacity:1"/><stop offset="1" style="stop-color:rgb(140,107,26);stop-opacity:1"/></linearGradient>
        <linearGradient id="_Linear25" x1="0" y1="0" x2="1" y2="0" gradientUnits="userSpaceOnUse" gradientTransform="matrix(1,0,0,-1,0,-4.29595e-05)"><stop offset="0" style="stop-color:rgb(246,174,26);stop-opacity:1"/><stop offset="0.4" style="stop-color:rgb(246,174,26);stop-opacity:1"/><stop offset="0.65" style="stop-color:rgb(255,221,0);stop-opacity:1"/><stop offset="0.97" style="stop-color:rgb(255,203,3);stop-opacity:1"/><stop offset="1" style="stop-color:rgb(255,203,3);stop-opacity:1"/></linearGradient>
        <linearGradient id="_Linear26" x1="0" y1="0" x2="1" y2="0" gradientUnits="userSpaceOnUse" gradientTransform="matrix(1,0,0,-1,0,0.000122116)"><stop offset="0" style="stop-color:rgb(238,214,136);stop-opacity:1"/><stop offset="0.13" style="stop-color:rgb(238,214,136);stop-opacity:1"/><stop offset="0.72" style="stop-color:rgb(168,127,38);stop-opacity:1"/><stop offset="0.98" style="stop-color:rgb(140,107,26);stop-opacity:1"/><stop offset="1" style="stop-color:rgb(140,107,26);stop-opacity:1"/></linearGradient>
        <linearGradient id="_Linear27" x1="0" y1="0" x2="1" y2="0" gradientUnits="userSpaceOnUse" gradientTransform="matrix(-0.645563,0.763707,0.763707,0.645563,0.966498,-0.448552)"><stop offset="0" style="stop-color:rgb(246,174,26);stop-opacity:1"/><stop offset="0.4" style="stop-color:rgb(246,174,26);stop-opacity:1"/><stop offset="0.65" style="stop-color:rgb(255,221,0);stop-opacity:1"/><stop offset="0.97" style="stop-color:rgb(255,203,3);stop-opacity:1"/><stop offset="1" style="stop-color:rgb(255,203,3);stop-opacity:1"/></linearGradient>
        <linearGradient id="_Linear28" x1="0" y1="0" x2="1" y2="0" gradientUnits="userSpaceOnUse" gradientTransform="matrix(1,0,0,-1,0,2.6925e-05)"><stop offset="0" style="stop-color:rgb(238,214,136);stop-opacity:1"/><stop offset="0.13" style="stop-color:rgb(238,214,136);stop-opacity:1"/><stop offset="0.72" style="stop-color:rgb(168,127,38);stop-opacity:1"/><stop offset="0.98" style="stop-color:rgb(140,107,26);stop-opacity:1"/><stop offset="1" style="stop-color:rgb(140,107,26);stop-opacity:1"/></linearGradient>
        <linearGradient id="_Linear29" x1="0" y1="0" x2="1" y2="0" gradientUnits="userSpaceOnUse" gradientTransform="matrix(1,0,0,-1,0,-8.6959e-05)"><stop offset="0" style="stop-color:rgb(246,174,26);stop-opacity:1"/><stop offset="0.4" style="stop-color:rgb(246,174,26);stop-opacity:1"/><stop offset="0.65" style="stop-color:rgb(255,221,0);stop-opacity:1"/><stop offset="0.97" style="stop-color:rgb(255,203,3);stop-opacity:1"/><stop offset="1" style="stop-color:rgb(255,203,3);stop-opacity:1"/></linearGradient>
        <linearGradient id="_Linear30" x1="0" y1="0" x2="1" y2="0" gradientUnits="userSpaceOnUse" gradientTransform="matrix(1,0,0,-1,0,0.000400416)"><stop offset="0" style="stop-color:rgb(238,214,136);stop-opacity:1"/><stop offset="0.13" style="stop-color:rgb(238,214,136);stop-opacity:1"/><stop offset="0.72" style="stop-color:rgb(168,127,38);stop-opacity:1"/><stop offset="0.98" style="stop-color:rgb(140,107,26);stop-opacity:1"/><stop offset="1" style="stop-color:rgb(140,107,26);stop-opacity:1"/></linearGradient>
        <linearGradient id="_Linear31" x1="0" y1="0" x2="1" y2="0" gradientUnits="userSpaceOnUse" gradientTransform="matrix(-0.561519,0.827464,0.827464,0.561519,0.892369,-0.472875)"><stop offset="0" style="stop-color:rgb(246,174,26);stop-opacity:1"/><stop offset="0.4" style="stop-color:rgb(246,174,26);stop-opacity:1"/><stop offset="0.65" style="stop-color:rgb(255,221,0);stop-opacity:1"/><stop offset="0.97" style="stop-color:rgb(255,203,3);stop-opacity:1"/><stop offset="1" style="stop-color:rgb(255,203,3);stop-opacity:1"/></linearGradient>
        <linearGradient id="_Linear32" x1="0" y1="0" x2="1" y2="0" gradientUnits="userSpaceOnUse" gradientTransform="matrix(1,-5.55112e-17,-5.55112e-17,-1,0,-0.000471537)"><stop offset="0" style="stop-color:rgb(238,214,136);stop-opacity:1"/><stop offset="0.13" style="stop-color:rgb(238,214,136);stop-opacity:1"/><stop offset="0.72" style="stop-color:rgb(168,127,38);stop-opacity:1"/><stop offset="0.98" style="stop-color:rgb(140,107,26);stop-opacity:1"/><stop offset="1" style="stop-color:rgb(140,107,26);stop-opacity:1"/></linearGradient>
        <linearGradient id="_Linear33" x1="0" y1="0" x2="1" y2="0" gradientUnits="userSpaceOnUse" gradientTransform="matrix(1,6.93889e-18,6.93889e-18,-1,0,5.80324e-05)"><stop offset="0" style="stop-color:rgb(246,174,26);stop-opacity:1"/><stop offset="0.4" style="stop-color:rgb(246,174,26);stop-opacity:1"/><stop offset="0.65" style="stop-color:rgb(255,221,0);stop-opacity:1"/><stop offset="0.97" style="stop-color:rgb(255,203,3);stop-opacity:1"/><stop offset="1" style="stop-color:rgb(255,203,3);stop-opacity:1"/></linearGradient>
        <linearGradient id="_Linear34" x1="0" y1="0" x2="1" y2="0" gradientUnits="userSpaceOnUse" gradientTransform="matrix(1,0,0,-1,0,-0.000527348)"><stop offset="0" style="stop-color:rgb(238,214,136);stop-opacity:1"/><stop offset="0.13" style="stop-color:rgb(238,214,136);stop-opacity:1"/><stop offset="0.72" style="stop-color:rgb(168,127,38);stop-opacity:1"/><stop offset="0.98" style="stop-color:rgb(140,107,26);stop-opacity:1"/><stop offset="1" style="stop-color:rgb(140,107,26);stop-opacity:1"/></linearGradient>
        <linearGradient id="_Linear35" x1="0" y1="0" x2="1" y2="0" gradientUnits="userSpaceOnUse" gradientTransform="matrix(1,-5.55112e-17,-5.55112e-17,-1,0,8.83728e-05)"><stop offset="0" style="stop-color:rgb(246,174,26);stop-opacity:1"/><stop offset="0.4" style="stop-color:rgb(246,174,26);stop-opacity:1"/><stop offset="0.65" style="stop-color:rgb(255,221,0);stop-opacity:1"/><stop offset="0.97" style="stop-color:rgb(255,203,3);stop-opacity:1"/><stop offset="1" style="stop-color:rgb(255,203,3);stop-opacity:1"/></linearGradient>
        <linearGradient id="_Linear36" x1="0" y1="0" x2="1" y2="0" gradientUnits="userSpaceOnUse" gradientTransform="matrix(1,-5.55112e-17,-5.55112e-17,-1,0,2.77096e-05)"><stop offset="0" style="stop-color:rgb(238,214,136);stop-opacity:1"/><stop offset="0.13" style="stop-color:rgb(238,214,136);stop-opacity:1"/><stop offset="0.72" style="stop-color:rgb(168,127,38);stop-opacity:1"/><stop offset="0.98" style="stop-color:rgb(140,107,26);stop-opacity:1"/><stop offset="1" style="stop-color:rgb(140,107,26);stop-opacity:1"/></linearGradient>
        <linearGradient id="_Linear37" x1="0" y1="0" x2="1" y2="0" gradientUnits="userSpaceOnUse" gradientTransform="matrix(-0.685827,0.727764,0.727764,0.685827,0.920556,-0.3974)"><stop offset="0" style="stop-color:rgb(246,174,26);stop-opacity:1"/><stop offset="0.4" style="stop-color:rgb(246,174,26);stop-opacity:1"/><stop offset="0.65" style="stop-color:rgb(255,242,0);stop-opacity:1"/><stop offset="1" style="stop-color:rgb(255,242,0);stop-opacity:1"/></linearGradient>
        <linearGradient id="_Linear38" x1="0" y1="0" x2="1" y2="0" gradientUnits="userSpaceOnUse" gradientTransform="matrix(1,0,0,-1,0,-0.000386049)"><stop offset="0" style="stop-color:rgb(238,214,136);stop-opacity:1"/><stop offset="0.13" style="stop-color:rgb(238,214,136);stop-opacity:1"/><stop offset="0.72" style="stop-color:rgb(168,127,38);stop-opacity:1"/><stop offset="0.98" style="stop-color:rgb(140,107,26);stop-opacity:1"/><stop offset="1" style="stop-color:rgb(140,107,26);stop-opacity:1"/></linearGradient>
        <linearGradient id="_Linear39" x1="0" y1="0" x2="1" y2="0" gradientUnits="userSpaceOnUse" gradientTransform="matrix(1,0,0,-1,0,-0.000164649)"><stop offset="0" style="stop-color:rgb(246,174,26);stop-opacity:1"/><stop offset="0.4" style="stop-color:rgb(246,174,26);stop-opacity:1"/><stop offset="0.65" style="stop-color:rgb(255,242,0);stop-opacity:1"/><stop offset="1" style="stop-color:rgb(255,242,0);stop-opacity:1"/></linearGradient>
        <linearGradient id="_Linear40" x1="0" y1="0" x2="1" y2="0" gradientUnits="userSpaceOnUse" gradientTransform="matrix(1,5.55112e-17,5.55112e-17,-1,0,0.000124081)"><stop offset="0" style="stop-color:rgb(238,214,136);stop-opacity:1"/><stop offset="0.13" style="stop-color:rgb(238,214,136);stop-opacity:1"/><stop offset="0.72" style="stop-color:rgb(168,127,38);stop-opacity:1"/><stop offset="0.98" style="stop-color:rgb(140,107,26);stop-opacity:1"/><stop offset="1" style="stop-color:rgb(140,107,26);stop-opacity:1"/></linearGradient>
        <linearGradient id="_Linear41" x1="0" y1="0" x2="1" y2="0" gradientUnits="userSpaceOnUse" gradientTransform="matrix(-0.686026,0.727577,0.727577,0.686026,0.920847,-0.397376)"><stop offset="0" style="stop-color:rgb(246,174,26);stop-opacity:1"/><stop offset="0.4" style="stop-color:rgb(246,174,26);stop-opacity:1"/><stop offset="0.65" style="stop-color:rgb(255,242,0);stop-opacity:1"/><stop offset="1" style="stop-color:rgb(255,242,0);stop-opacity:1"/></linearGradient>
        <linearGradient id="_Linear42" x1="0" y1="0" x2="1" y2="0" gradientUnits="userSpaceOnUse" gradientTransform="matrix(1,5.55112e-17,5.55112e-17,-1,0,-0.000537637)"><stop offset="0" style="stop-color:rgb(238,214,136);stop-opacity:1"/><stop offset="0.13" style="stop-color:rgb(238,214,136);stop-opacity:1"/><stop offset="0.72" style="stop-color:rgb(182,147,72);stop-opacity:1"/><stop offset="0.98" style="stop-color:rgb(160,130,62);stop-opacity:1"/><stop offset="1" style="stop-color:rgb(160,130,62);stop-opacity:1"/></linearGradient>
        <linearGradient id="_Linear43" x1="0" y1="0" x2="1" y2="0" gradientUnits="userSpaceOnUse" gradientTransform="matrix(1,0,0,-1,0,-2.348e-05)"><stop offset="0" style="stop-color:rgb(246,174,26);stop-opacity:1"/><stop offset="0.4" style="stop-color:rgb(246,174,26);stop-opacity:1"/><stop offset="0.65" style="stop-color:rgb(255,242,0);stop-opacity:1"/><stop offset="1" style="stop-color:rgb(255,242,0);stop-opacity:1"/></linearGradient>
        <linearGradient id="_Linear44" x1="0" y1="0" x2="1" y2="0" gradientUnits="userSpaceOnUse" gradientTransform="matrix(1,0,0,-1,0,-0.000574683)"><stop offset="0" style="stop-color:rgb(238,214,136);stop-opacity:1"/><stop offset="0.13" style="stop-color:rgb(238,214,136);stop-opacity:1"/><stop offset="0.72" style="stop-color:rgb(182,147,72);stop-opacity:1"/><stop offset="0.98" style="stop-color:rgb(160,130,62);stop-opacity:1"/><stop offset="1" style="stop-color:rgb(160,130,62);stop-opacity:1"/></linearGradient>
    </defs>
</svg>
